<svg id="Glyph" viewBox="0 0 64 64" xmlns="http://www.w3.org/2000/svg"><path d="m35.36578 16.96257a7.4808 7.4808 0 0 1 5.1519 4.51178l.37019 1.02033c.61129.8014.86484-.47167 1.08034-1.02041a6.99527 6.99527 0 0 1 4.13158-4.13155c.44671-.21428 1.31575-.32531 1.27049-.73023.04753-.40509-.894-.53737-1.27049-.72036a7.44332 7.44332 0 0 1 -4.50161-5.15192.37969.37969 0 0 0 -.71031.00008 7.44328 7.44328 0 0 1 -4.50176 5.15182l-1.02033.37019a.37691.37691 0 0 0 0 .70027z"/><path d="m6.47493 34.33909a5.43163 5.43163 0 0 1 2.83107 1.83075 6.348 6.348 0 0 1 .94036 1.95071.50924.50924 0 0 0 .94038 0 5.04641 5.04641 0 0 1 3.05119-3.51126l.72018-.27016c.57446-.26584.3478-.9272-.23008-1.0203a5.11331 5.11331 0 0 1 -3.54123-3.69153.52413.52413 0 0 0 -.94044.00006l-.2601.72024a5.03684 5.03684 0 0 1 -3.51137 3.05107.5028.5028 0 0 0 .00004.94042z"/><path d="m57.39406 41.66185a5.49612 5.49612 0 0 1 -2.87106-1.86073 6.60861 6.60861 0 0 1 -.98041-1.99071.39045.39045 0 0 0 -.70023 0 5.16761 5.16761 0 0 1 -3.13124 3.58133l-.72024.2701a.37868.37868 0 0 0 0 .70027c.18287.06619.54056.20448.72029.27012a5.19664 5.19664 0 0 1 3.1311 3.58134.3864.3864 0 0 0 .35017.25006.3665.3665 0 0 0 .35011-.2501 5.1674 5.1674 0 0 1 3.13124-3.58126l.72024-.27016a.37246.37246 0 0 0 .00003-.70026z"/><path d="m58.91459 36.1298-10.664-5.60214c-1.20692.64063-12.59061 6.61872-14.10523 7.42283 1.53313.81363 12.90961 6.76927 14.10522 7.41277l1.22044-.64027c-.67287-.39407-1.62284-.48793-2.13072-1.14043a2.36571 2.36571 0 0 1 -.46022-.78027v-1.58061c.60666-1.87157 3.263-1.38738 3.82135-3.38135a2.82154 2.82154 0 0 1 1.7008-2.11065l1.3304-.00005a2.04041 2.04041 0 0 1 1.69066 1.39048 4.32144 4.32144 0 0 0 .91036 1.73067c.53818.61946 1.47407.73752 2.15079 1.13038a2.1014 2.1014 0 0 0 .43015-3.85136z"/><path d="m32.00453 36.82006c1.532-.80146 12.87837-6.78231 14.09529-7.42283l-12.66476-6.66247a3.06128 3.06128 0 0 0 -2.88109 0l-12.66472 6.65252c1.12139.57231 12.66686 6.68047 14.11528 7.43278z"/><path d="m29.8537 37.95049c-1.543-.82124-12.90443-6.79274-14.11528-7.43286l-1.12042.59027a1.87059 1.87059 0 0 0 .32013.15008c2.63952.53592 3.28977 3.85039.71014 4.9619l-.71014.26a3.23542 3.23542 0 0 0 -1.88065 2.33093 2.52208 2.52208 0 0 1 -4.69181-.00018 3.18019 3.18019 0 0 0 -1.87076-2.33063l-.72026-.26015a2.26518 2.26518 0 0 1 -.44017-.22005l-.26.13005a2.06289 2.06289 0 0 0 .00007 3.62135l10.67392 5.6121c1.20491-.64183 12.59109-6.60982 14.10523-7.41281z"/><path d="m32.00453 39.07091c-1.545.80915-12.88653 6.77941-14.11532 7.42277l12.66479 6.66247a3.14733 3.14733 0 0 0 2.88109 0l12.66473-6.66247c-1.10822-.57186-12.6552-6.67668-14.09529-7.42277z"/><path d="m23.66137 23.81518a3.08631 3.08631 0 0 0 -.00009-6.17236 3.08631 3.08631 0 0 0 .00009 6.17236z"/><path d="m12.36715 21.73438a4.13677 4.13677 0 0 0 -.00009-8.27312 4.13677 4.13677 0 0 0 .00009 8.27312z"/></svg>