<svg height="512" viewBox="0 0 64 64" width="512" xmlns="http://www.w3.org/2000/svg"><g id="Layer_70" data-name="Layer 70"><path d="m53 12.38-4-2v-4.38h-10v4.38l-4 2v3.62h18z"/><path d="m51 42h-14v9h14zm-5 3h-4v-2h4z"/><path d="m13 52h17v-6h-17zm6-4h4v2h-4z"/><path d="m13 44h17v-6h-17zm6-4h4v2h-4z"/><path d="m12 20.18a3 3 0 1 0 2 0v-9.18h9v4.09a6 6 0 1 0 2 0v-4.09h5v-2h-5v-2h-2v2h-9v-2h-2v2h-3v2h3z"/><path d="m58 31h-9v-3h-4v2h2v1h-6v-1h2v-2h-4v3h-33v2h1v25h50v-25h1zm-47 5h21v18h-21zm42 17h-18v-13h18zm-8.5-18a1.5 1.5 0 1 1 -1.5 1.5 1.5 1.5 0 0 1 1.5-1.5zm5 0a1.5 1.5 0 1 1 -1.5 1.5 1.5 1.5 0 0 1 1.5-1.5z"/></g></svg>