<?xml version="1.0" encoding="iso-8859-1"?>
<!-- Generator: Adobe Illustrator 19.0.0, SVG Export Plug-In . SVG Version: 6.00 Build 0)  -->
<svg version="1.1" id="Layer_1" xmlns="http://www.w3.org/2000/svg" xmlns:xlink="http://www.w3.org/1999/xlink" x="0px" y="0px"
	 viewBox="0 0 354.044 354.044" style="enable-background:new 0 0 354.044 354.044;" xml:space="preserve">
<g>
	<g>
		<path d="M78.467,267.594L267.594,78.467c7.608-7.608,7.608-19.948,0-27.561L250.509,33.82l-11.023-11.023L222.395,5.706
			c-7.608-7.608-19.948-7.608-27.561,0L5.706,194.834c-7.608,7.608-7.608,19.948,0,27.561l45.199,45.199
			C58.519,275.203,70.853,275.203,78.467,267.594z"/>
		<rect x="246.608" y="13.938" transform="matrix(0.7071 0.7071 -0.7071 0.7071 87.8762 -174.3551)" width="15.589" height="9.92"/>
		<path d="M346.222,308.452l-90.619-90.619l-37.77,37.77l90.619,90.619c10.43,10.429,27.341,10.429,37.77,0
			S356.651,318.881,346.222,308.452z"/>
		<path d="M230.966,219.942l-15.647-15.647c-11.669-11.668-33.526-8.801-48.722,6.395l-88.586,88.591
			c-9.119,9.119-23.951,9.119-33.07,0l-13.409-13.409c-7.875-7.875-8.914-19.999-3.185-29.035l-11.182-11.182
			c-11.715,15.268-10.624,37.274,3.343,51.246l13.409,13.409c15.196,15.196,39.921,15.196,55.117,0l88.586-88.586
			c9.743-9.743,21.878-11.192,26.675-6.395l15.647,15.647L230.966,219.942z"/>
	</g>
</g>
<g>
</g>
<g>
</g>
<g>
</g>
<g>
</g>
<g>
</g>
<g>
</g>
<g>
</g>
<g>
</g>
<g>
</g>
<g>
</g>
<g>
</g>
<g>
</g>
<g>
</g>
<g>
</g>
<g>
</g>
</svg>
