<svg id="Layer_1" enable-background="new 0 0 512 512" viewBox="0 0 512 512" xmlns="http://www.w3.org/2000/svg"><path clip-rule="evenodd" d="m118.6 289.68c57.26 0 103.85 46.58 103.85 103.85 0 3.11-.15 6.19-.41 9.23h261.12c.86 0 1.59-.73 1.59-1.59v-104.27c0-2.19-1.79-3.98-3.98-3.98h-147.2c-3.12 0-5.92-.81-8.55-2.48l-71.46-45.34c-4.71-2.99-7.42-7.91-7.42-13.49v-46.32s0 0 0-.01c0 0 0 0 0-.01v-25.37s0 0 0-.01v-18.15c0-2.19-1.78-3.97-3.97-3.97h-33.54c-8.81 0-15.98-7.17-15.98-15.98v-68.91h-90.76c-.86 0-1.59.73-1.59 1.59v236.82c5.94-1.06 12.06-1.61 18.3-1.61zm86.07-200.78v-12h41.47v-55.52c0-3.32 2.69-6 6-6 3.32 0 6 2.69 6 6v55.52h90.39v-55.52c0-3.32 2.69-6 6-6s6 2.69 6 6v55.52h90.39v-55.52c0-3.32 2.68-6 6-6 3.31 0 6 2.69 6 6v55.52h24.39c3.31 0 6 2.69 6 6s-2.69 6-6 6h-24.39v90.39h24.39c3.31 0 6 2.69 6 6 0 3.32-2.69 6-6 6h-24.39v89.62h-12v-89.62h-90.39v89.62h-12v-89.62h-90.37v-12h90.37v-90.39h-90.39v52.05c-.35-7.1-5.34-12.99-12-14.7v-37.35zm155.86 0h90.39v90.39h-90.39zm-269.78 297.88 10.59 10.59 45.11-45.1c3.05-3.05 7.12-4.74 11.46-4.74 4.33 0 8.4 1.68 11.46 4.74l1.52 1.52c3.05 3.06 4.73 7.13 4.73 11.46s-1.68 8.4-4.74 11.46l-58.08 58.08c-3.16 3.16-7.31 4.74-11.46 4.74s-8.3-1.58-11.46-4.74l-23.57-23.57c-6.31-6.32-6.31-16.6 0-22.92l1.52-1.52c6.32-6.32 16.6-6.32 22.92 0zm119.7 6.74c0 50.65-41.2 91.85-91.85 91.85s-91.85-41.2-91.85-91.85c0-50.64 41.2-91.85 91.85-91.85 50.65.01 91.85 41.21 91.85 91.85zm-113.35 16.58c1.13 1.12 2.65 1.76 4.24 1.76s3.12-.63 4.25-1.76l49.34-49.35c.79-.79 1.85-1.22 2.98-1.22s2.18.43 2.97 1.22l1.52 1.52c.79.79 1.22 1.85 1.22 2.98s-.43 2.18-1.22 2.97l-58.08 58.08c-1.64 1.64-4.31 1.64-5.95 0l-23.57-23.57c-1.64-1.64-1.64-4.31 0-5.95l1.52-1.52c.82-.82 1.9-1.23 2.97-1.23 1.08 0 2.16.41 2.98 1.23z" fill-rule="evenodd"/></svg>