<svg height="512" viewBox="0 0 64 64" width="512" xmlns="http://www.w3.org/2000/svg"><g id="favorite-location-pin-map-star"><path d="m37.54 52.65c6.02-6.75 15.46-19.03 15.46-29.65a21 21 0 0 0 -42 0c0 10.62 9.44 22.9 15.46 29.65-3.41.84-5.46 2.44-5.46 4.35 0 3.25 5.67 5 11 5s11-1.75 11-5c0-1.91-2.05-3.51-5.46-4.35zm-24.54-29.65a19 19 0 0 1 38 0c0 12.84-15.51 29.1-19 32.6-3.49-3.5-19-19.76-19-32.6zm19 37c-5.49 0-9-1.78-9-3 0-.74 1.58-2.01 5.03-2.63 1.81 1.94 3.08 3.17 3.28 3.36a1.017 1.017 0 0 0 1.38 0c.2-.19 1.47-1.42 3.28-3.36 3.45.62 5.03 1.89 5.03 2.63 0 1.22-3.51 3-9 3z"/><path d="m35.73 48.65c-.99 1.16-2 2.28-3 3.34a1.007 1.007 0 0 1 -.73.32 1.024 1.024 0 0 1 -.73-.32c-.99-1.06-2-2.18-2.99-3.34l1.52-1.3c.4.46.8.9 1.2 1.35v-2.7h2v2.71c.4-.45.81-.89 1.21-1.36z"/><path d="m32 6a17 17 0 1 0 17 17 17.024 17.024 0 0 0 -17-17zm0 32a15 15 0 1 1 15-15 15.018 15.018 0 0 1 -15 15z"/><path d="m31 42h2v2h-2z"/><path d="m41.95 19.68a1 1 0 0 0 -.95-.68h-6.25l-1.79-6.27a1 1 0 0 0 -1.92 0l-1.79 6.27h-6.25a1 1 0 0 0 -.6 1.8l4.88 3.7-2.22 6.16a.995.995 0 0 0 1.49 1.17l5.45-3.63 5.45 3.63a.991.991 0 0 0 .55.17 1.009 1.009 0 0 0 .62-.21 1 1 0 0 0 .32-1.13l-2.22-6.16 4.88-3.7a1.007 1.007 0 0 0 .35-1.12zm-7.03 3.67a.993.993 0 0 0 -.33 1.14l1.44 3.99-3.48-2.31a.975.975 0 0 0 -1.1 0l-3.48 2.31 1.44-3.99a.993.993 0 0 0 -.33-1.14l-3.1-2.35h4.02a1 1 0 0 0 .96-.73l1.04-3.63 1.04 3.63a1 1 0 0 0 .96.73h4.02z"/></g></svg>