<svg enable-background="new 0 0 1000 1000" viewBox="0 0 1000 1000" xmlns="http://www.w3.org/2000/svg"><g><g transform="matrix(.1 0 0 -.1 0 511)"><path d="m2876 4377.7c-622.4-622.4-630.3-630.3-594.7-669.8 31.6-33.6 33.6-45.4 11.9-71.1-13.8-17.8-21.7-33.6-17.8-37.5 4-4 55.3-47.4 112.6-98.8 85-75.1 112.6-88.9 134.4-69.2 23.7 17.8 47.4 4 132.4-73.1 55.3-53.3 363.6-341.8 683.6-640.2l578.9-543.3-644.1-5.9-644.1-4v-1724.8-1722.9l-59.3-71.1-57.3-71.1 57.3-55.3 59.3-57.3v-1468-1468h-711.3-711.3v243 243l130.4 55.3c183.7 81 326 217.3 416.9 403.1l75.1 150.2v326c0 359.6-21.7 448.5-148.2 620.4-53.3 73.1-55.3 77.1-25.7 167.9 41.5 134.4 21.7 296.4-57.3 440.6-71.1 134.4-150.2 211.4-298.3 288.5-142.3 75.1-351.7 77-497.9 5.9-280.6-136.3-442.6-466.3-359.6-735 29.6-90.9 29.6-92.9-37.5-183.7-116.6-164-136.3-256.9-136.3-614.5v-316.1l75.1-150.2c90.9-185.7 233.1-322.1 416.9-403.1l130.4-55.3v-243-243h-316.3-316.1v-158.1-158.2h4741.9 4741.9v158.1 158.1h-316.1-316.1v243 243l130.4 55.3c183.8 81 326 217.3 416.9 403.1l75.1 150.2v326c0 359.6-21.7 448.5-148.2 620.4-53.4 73.1-55.3 77.1-25.7 167.9 41.5 134.4 21.7 296.4-57.3 440.6-71.1 134.4-150.2 211.4-298.3 288.5-142.3 75.1-351.7 77-497.9 5.9-280.6-136.3-442.6-466.3-359.6-735 29.6-90.9 29.6-92.9-37.5-183.7-116.6-164-136.3-256.9-136.3-614.5v-316.1l75.1-150.2c90.9-185.7 233.1-322.1 416.9-403.1l130.4-55.3v-243-243h-711.3-711.4v1468 1468l59.3 57.3 57.3 55.3-57.3 67.2-59.3 67.2v1726.8 1728.8l-644.1 4-646.1 5.9 580.9 543.3c320.1 300.3 628.3 586.8 683.7 640.2 85 77.1 110.6 90.9 132.4 73.1 21.7-19.8 49.4-5.9 134.4 69.2 57.3 51.4 108.7 94.8 112.6 98.8s-3.9 19.8-17.8 37.5c-21.7 25.7-19.7 37.5 11.9 71.1 35.6 39.5 27.7 47.4-594.7 669.8l-632.5 632.3h-1491.7-1491.7zm1807.9 306.3c0-11.9-436.7-620.4-452.5-630.3-9.9-7.9-128.4 187.7-333.9 555.2l-47.4 85h416.9c229.2 0 416.9-4 416.9-9.9zm1418.6-75.1c-207.5-369.5-324-563.1-333.9-555.2-13.8 7.9-411 563.1-440.6 616.5-11.8 17.8 75.1 23.7 403.1 23.7h418.9zm-2197.1-650 29.6-55.3h-539.4-539.4l343.8 343.8 345.8 345.8 166-290.4c90.9-160.2 177.8-314.3 193.6-343.9zm2961.7-51.4c-146.2-2-387.2-2-533.5 0l-266.7 5.9 193.6 339.8 191.7 339.8 341.8-339.8 339.9-339.8zm-1624.1 335.9 235.1-330-470.2-5.9c-256.9-2-472.2-2-476.2 3.9-9.9 7.9 452.5 661.9 468.3 663.9 5.9 0 114.6-150.1 243-331.9zm-867.4-1477.9c150.2-450.5 268.7-823.9 266.7-827.9-7.9-5.9-1495.7 1381.1-1687.3 1570.8l-79 79h612.5 612.5zm1191.5 798.2c-3.9-13.8-124.5-371.4-266.7-796.2-140.3-422.8-268.7-796.3-280.6-829.8-23.7-55.3-39.5-13.8-298.3 760.7-152.1 450.5-280.6 835.8-286.5 855.5-9.9 31.6 25.7 33.6 565.1 33.6 454.4-.1 574.9-6 567-23.8zm1477.9-55.3c-191.7-189.7-1679.4-1576.7-1687.3-1570.8-2 4 116.6 377.4 266.7 827.9l274.6 821.9h612.5 612.5zm-2616-1811.8c112.6-106.7 152.1-156.1 128.4-160-27.7-5.9-31.6-71.1-31.6-638.2v-630.3h474.2 474.2v630.3c0 573-3.9 632.3-33.6 638.2-21.7 3.9 15.8 51.4 130.4 160l164 152.1h659.9 659.9v-3161.3-3161.3h-158.1-158.1v711.3 711.3h-1738.6-1738.7v-711.3-711.3h-158.1-158.1v3161.3 3161.3h661.9 662zm545.3-501.9c15.8-15.8 33.6-15.8 61.2 0 21.7 11.9 59.3 21.7 81 21.7 39.5 0 41.5-9.9 41.5-316.1v-316.1h-158-158.1v316.1 316.1h55.3c29.7.1 65.3-9.8 77.1-21.7zm-3769.8-3017c98.8-49.4 146.2-124.5 156.1-249 7.9-90.9 0-122.5-43.5-197.6-27.7-47.4-51.4-106.7-51.4-130.4s39.5-83 90.9-134.4c146.2-148.2 166-207.5 166-509.8 0-304.3-25.7-401.1-134.4-507.8-187.7-183.7-515.7-175.9-693.5 15.8-102.7 110.6-120.5 185.7-120.5 494 0 300.3 21.7 361.6 166 507.8 51.4 51.4 90.9 110.6 90.9 134.4 0 23.7-23.7 83-51.4 130.4-43.5 75.1-51.4 106.7-43.5 197.6 15.8 179.8 130.4 284.5 312.2 284.5 49.4 0 118.5-15.8 156.1-35.5zm7903.2 0c98.8-49.4 146.2-124.5 156.1-249 7.9-90.9 0-122.5-43.5-197.6-27.7-47.4-51.4-106.7-51.4-130.4s39.5-83 90.9-134.4c146.2-148.2 166-207.5 166-509.8 0-304.3-25.7-401.1-134.4-507.8-187.7-183.7-515.7-175.9-693.5 15.8-102.7 110.6-120.5 185.7-120.5 494 0 300.3 21.7 361.6 166 507.8 51.4 51.4 90.9 110.6 90.9 134.4 0 23.7-23.7 83-51.4 130.4-43.5 75.1-51.4 106.7-43.5 197.6 15.8 179.8 130.4 284.5 312.2 284.5 49.4 0 118.6-15.8 156.1-35.5zm-4965.2-1657.7c-177.8-227.2-249-456.4-249-800.2v-193.6h-158.1-158.1v553.2 553.2h328 326zm1116.3 73.1c239.1-73.1 440.6-284.5 501.9-523.6 17.8-69.2 29.6-203.5 29.6-330v-213.4h-792.3-792.3l9.9 262.8c9.9 296.4 35.6 387.3 148.2 537.4 197.6 262.8 563.1 371.5 895 266.8zm1163.8-513.8v-553.2h-156.1-154.1l-11.9 262.8c-11.9 341.8-65.2 497.9-245 731l-86.9 112.6h326 328z"/><path d="m3261.3 900.3v-632.2h474.2 474.2v632.3 632.3h-474.2-474.2zm632.2 0v-316.1h-158.1-158.1v316.1 316.1h158.1 158.1z"/><path d="m5790.3 900.3v-632.2h474.2 474.2v632.3 632.3h-474.2-474.2zm632.3 0v-316.1h-158.1-158v316.1 316.1h158 158.1z"/><path d="m3261.3-680.3v-632.3h474.2 474.2v632.3 632.3h-474.2-474.2zm632.2 0v-316.1h-158.1-158.1v316.1 316.1h158.1 158.1z"/><path d="m4525.8-680.3v-632.3h474.2 474.2v632.3 632.3h-474.2-474.2zm632.3 0v-316.1h-158.1-158.1v316.1 316.1h158.1 158.1z"/><path d="m5790.3-680.3v-632.3h474.2 474.2v632.3 632.3h-474.2-474.2zm632.3 0v-316.1h-158.1-158v316.1 316.1h158 158.1z"/><path d="m3261.3-2181.9v-553.2h474.2 474.2v553.2 553.2h-474.2-474.2zm632.2 0v-237.1h-158.1-158.1v237.1 237.1h158.1 158.1z"/><path d="m4525.8-2181.9v-553.2h474.2 474.2v553.2 553.2h-474.2-474.2zm632.3 0v-237.1h-158.1-158.1v237.1 237.1h158.1 158.1z"/><path d="m5790.3-2181.9v-553.2h474.2 474.2v553.2 553.2h-474.2-474.2zm632.3 0v-237.1h-158.1-158v237.1 237.1h158 158.1z"/><path d="m1909.8 3127.1c-92.9-158.1-193.6-351.7-187.7-357.6 11.9-9.9 252.9-130.4 260.8-130.4 11.9 0 235.1 397.1 227.2 403.1-25.7 19.8-245 150.2-252.9 150.2-5.9-.1-25.6-29.8-47.4-65.3z"/><path d="m7910.4 3115.2c-57.3-39.5-108.7-79-114.6-85-5.9-3.9 33.6-85 88.9-175.8 53.3-90.9 104.7-177.8 114.6-193.6 11.9-21.7 39.5-13.8 142.3 37.5 71.1 35.6 132.4 67.2 136.3 71.1 3.9 2-29.6 71.1-71.1 150.2-128.4 233.1-152.1 272.7-173.9 272.7-9.9-2-67.2-35.6-122.5-77.1z"/><path d="m1504.8 2210.3c-45.4-158.1-86.9-381.3-75.1-393.2 5.9-5.9 71.1-25.7 144.2-39.5 142.3-29.6 166-21.7 166 57.3 0 19.8 17.8 108.7 41.5 195.6 21.7 86.9 37.5 160 33.6 162-21.7 15.8-241 90.9-262.8 90.9-15.8 0-37.5-33.6-47.4-73.1z"/><path d="m8311.4 2241.9c-65.2-21.7-120.5-41.5-126.4-45.4-4-5.9 11.8-86.9 35.5-183.8 21.7-94.8 45.4-191.7 49.4-215.4 7.9-37.5 15.8-39.5 152.1-21.7 79 9.9 148.2 21.7 152.1 25.7 25.7 23.7-92.9 482.1-124.5 480.1-11.7-2-74.9-19.7-138.2-39.5z"/><path d="m1372.4 1054.4c7.9-132.4 17.8-245 21.7-248.9 9.9-11.9 256.9 17.8 280.6 33.6 11.9 5.9 15.8 96.8 9.9 235.1l-9.9 221.3h-158.1-158.1z"/><path d="m8333.2 1281.6c-5.9-9.9-11.9-112.6-15.8-233.1l-7.9-217.3 144.2-17.8c79-9.9 146.2-13.8 150.2-9.9 3.9 3.9 13.8 116.6 21.7 250.9l15.8 241h-150.2c-82.9.1-154.1-5.8-158-13.8z"/><path d="m1605.6 331.3c-142.3-35.6-138.3-4-31.6-314.2l71.1-201.5 110.6 49.4c63.2 27.7 124.5 55.3 138.3 61.3 31.6 13.8 33.6 7.9-39.5 237.1-73.1 225.2-59.3 215.3-248.9 167.9z"/><path d="m8139.6 149.5-69.2-217.3 134.4-53.3c83-31.6 142.3-45.4 154.1-33.6 17.8 17.8 162 446.5 152.1 452.5-5.9 5.9-278.6 69.2-290.4 69.2-6-.1-41.5-98.9-81-217.5z"/><path d="m2000.7-557.8c-83-47.4-120.5-81-112.6-100.8 21.7-55.3 256.9-377.4 276.6-377.4 11.9 0 67.2 43.5 126.5 94.8l106.7 94.8-98.8 136.4c-55.3 77.1-110.6 158.1-122.5 183.7-11.9 23.7-29.6 43.5-37.5 43.5-8-1.9-69.2-35.5-138.4-75z"/><path d="m7785.9-585.5c-35.6-57.3-90.9-136.3-122.5-175.8-29.6-39.5-55.3-81-55.3-90.9 0-17.8 179.8-158 223.3-173.9 21.8-9.9 110.7 104.7 237.1 300.3l53.3 85-108.7 69.2c-59.3 39.5-120.5 75.1-134.4 81-15.8 5.9-53.3-31.7-92.8-94.9z"/></g></g></svg>