<svg id="Capa_1" enable-background="new 0 0 510 510" height="512" viewBox="0 0 510 510" width="512" xmlns="http://www.w3.org/2000/svg"><g><g><path d="m262.56 313.678c57.99 0 105-47.01 105-105s-105-157.5-105-157.5-105 99.51-105 157.5 47.01 105 105 105z"/><path d="m138.258 458.823h49.275l15.471-61.884c-15.561-3.346-30.848-8.001-45.779-13.984z"/><path d="m57.298 458.823h50.036l21.286-85.145h-50.035z"/><path d="m232.74 401.69-14.283 57.133h49.186l14.056-56.223c-6.352.432-12.722.657-19.099.657-10.031 0-19.989-.531-29.86-1.567z"/><path d="m378.988 458.823h50.542l21.287-85.145h-50.543z"/><path d="m0 458.823h26.375l21.286-85.145h-47.661z"/><path d="m298.565 458.823h49.5l18.869-75.475c-17.229 6.805-35.102 11.913-53.312 15.251z"/><path d="m481.74 373.678-21.287 85.145h49.547v-85.145z"/><path d="m140.299 342.4c37.275 20.462 79.453 31.277 121.974 31.277s84.699-10.815 121.974-31.277c37.274-20.461 69.043-50.239 91.872-86.112l31.537-49.557-25.311-16.106-31.537 49.557c-41.239 64.806-111.72 103.496-188.535 103.496s-147.296-38.69-188.536-103.496l-11.402-17.917 35.599 7.382 6.091-29.375-85.9-17.813-17.812 85.9 29.375 6.091 7.446-35.909 11.293 17.747c22.829 35.874 54.597 65.651 91.872 86.112z"/></g></g></svg>